<?xml version="1.0" encoding="UTF-8" standalone="no"?>
<svg
   xmlns:dc="http://purl.org/dc/elements/1.1/"
   xmlns:cc="http://creativecommons.org/ns#"
   xmlns:rdf="http://www.w3.org/1999/02/22-rdf-syntax-ns#"
   xmlns:svg="http://www.w3.org/2000/svg"
   xmlns="http://www.w3.org/2000/svg"
   xmlns:sodipodi="http://sodipodi.sourceforge.net/DTD/sodipodi-0.dtd"
   xmlns:inkscape="http://www.inkscape.org/namespaces/inkscape"
   version="1.1"
   width="937"
   height="687"
   id="svg121"
   sodipodi:docname="d15_0.svg"
   inkscape:version="0.92.4 (5da689c313, 2019-01-14)">
  <metadata
     id="metadata125">
    <rdf:RDF>
      <cc:Work
         rdf:about="">
        <dc:format>image/svg+xml</dc:format>
        <dc:type
           rdf:resource="http://purl.org/dc/dcmitype/StillImage" />
        <dc:title></dc:title>
      </cc:Work>
    </rdf:RDF>
  </metadata>
  <sodipodi:namedview
     pagecolor="#ffffff"
     bordercolor="#666666"
     borderopacity="1"
     objecttolerance="10"
     gridtolerance="10"
     guidetolerance="10"
     inkscape:pageopacity="0"
     inkscape:pageshadow="2"
     inkscape:window-width="1325"
     inkscape:window-height="740"
     id="namedview123"
     showgrid="false"
     inkscape:zoom="0.68704511"
     inkscape:cx="512.23201"
     inkscape:cy="318.80458"
     inkscape:window-x="41"
     inkscape:window-y="0"
     inkscape:window-maximized="1"
     inkscape:current-layer="svg121" />
  <defs
     id="defs5">
    <clipPath
       id="CaeQtdMDMHNF">
      <path
         fill="none"
         stroke="none"
         d=" M 0 0 L 937 0 L 937 687 L 0 687 L 0 0 Z"
         id="path2" />
    </clipPath>
  </defs>
  <rect
     x="0"
     y="0"
     width="937"
     height="687"
     id="rect7"
     style="fill:#ffffff;fill-opacity:1;stroke:none" />
  <path
     d="m 295.5,2.5 v 685"
     stroke-miterlimit="10"
     id="path9"
     inkscape:connector-curvature="0"
     style="fill:none;stroke:#000000;stroke-miterlimit:10;stroke-opacity:1;paint-order:fill stroke markers" />
  <path
     d="m 295.5,1.5 -4,4"
     stroke-miterlimit="10"
     id="path11"
     inkscape:connector-curvature="0"
     style="fill:none;stroke:#000000;stroke-miterlimit:10;stroke-opacity:1;paint-order:fill stroke markers" />
  <path
     d="m 295.5,1.5 4,4"
     stroke-miterlimit="10"
     id="path13"
     inkscape:connector-curvature="0"
     style="fill:none;stroke:#000000;stroke-miterlimit:10;stroke-opacity:1;paint-order:fill stroke markers" />
  <path
     d="m 0.5,622.5 h 935"
     stroke-miterlimit="10"
     id="path15"
     inkscape:connector-curvature="0"
     style="fill:none;stroke:#000000;stroke-miterlimit:10;stroke-opacity:1;paint-order:fill stroke markers" />
  <path
     d="m 936.5,622.5 -4,-4"
     stroke-miterlimit="10"
     id="path17"
     inkscape:connector-curvature="0"
     style="fill:none;stroke:#000000;stroke-miterlimit:10;stroke-opacity:1;paint-order:fill stroke markers" />
  <path
     d="m 936.5,622.5 -4,4"
     stroke-miterlimit="10"
     id="path19"
     inkscape:connector-curvature="0"
     style="fill:none;stroke:#000000;stroke-miterlimit:10;stroke-opacity:1;paint-order:fill stroke markers" />
  <path
     d="m 754.16161,221.14278 -296.61107,35.5074 v 365.89431 h 296.09647 z"
     id="path21"
     inkscape:connector-curvature="0"
     style="fill:#000000;fill-opacity:0.09803922;fill-rule:evenodd;stroke:none;paint-order:stroke fill markers"
     sodipodi:nodetypes="ccccc" />
  <path
     d="m 107.70763,-111.46382 1.83008,5.57656 1.83007,5.52397 1.83008,5.471598 1.83007,5.419459 1.83008,5.36755 1.83008,5.31585 1.83008,5.26438 1.83008,5.21315 1.83008,5.16212 1.83007,5.11132 1.83008,5.06076 1.83008,5.01041 3.66016,9.87069 3.66015,9.67199 3.66016,9.47511 3.66015,9.28 3.66016,9.08671357 3.66016,8.89519003 3.66015,8.7054904 3.66016,8.51758 3.66016,8.33146 3.66015,8.14714 3.66016,7.96461 3.66015,7.78388 3.66016,7.60495 3.66016,7.4278 3.66015,7.25247 3.66016,7.078925 3.66016,6.90717 3.66015,6.737214 3.66016,6.56906 3.66015,6.40269 3.66016,6.23813 3.66015,6.07535 3.66016,5.91438 3.66016,5.7552 3.66015,5.59781 3.66016,5.44223 3.66016,5.28843 3.66015,5.13644 3.66016,4.98624 3.66015,4.83784 3.66016,4.69123 3.66016,4.54641 3.66015,4.4034 3.66016,4.26217 3.66016,4.12275 3.66015,3.98513 3.66016,3.84929 3.66015,3.71525 3.66016,3.58301 3.66016,3.45256 3.66015,3.32392 3.66016,3.19706 3.66016,3.07201 3.66015,2.94874 3.66016,2.82727 3.66015,2.70761 3.66016,2.58973 3.66016,2.47365 3.66015,2.35937 3.66016,2.24688 3.66016,2.13619 3.66015,2.0273 3.66016,1.9202 3.66015,1.81489 3.66016,1.71139 3.66016,1.60967 3.66015,1.50976 3.66016,1.41164 3.66016,1.31532 3.66015,1.22078 3.66016,1.12806 3.66015,1.03712 3.66016,0.94797 3.66016,0.86064 3.66015,0.77508 3.66016,0.69133 3.66016,0.60938 3.66015,0.52921 3.66016,0.45085 3.66015,0.37428 3.66016,0.29951 3.66016,0.22652 3.66015,0.15535 3.66016,0.086 3.66016,0.0184 3.66015,-0.0474 3.66016,-0.11142 3.66015,-0.17363 3.66016,-0.23403 3.66016,-0.29264 3.66015,-0.34946 3.66016,-0.40447 3.66016,-0.4577 3.66015,-0.50912 3.66016,-0.55876 3.66015,-0.60659 3.66016,-0.65263 3.66016,-0.69688 3.66015,-0.73932 3.66016,-0.77998 3.66016,-0.81883 3.66015,-0.85589 3.66016,-0.89115 3.66015,-0.92463 3.66016,-0.95629 3.66016,-0.98618 3.66015,-1.01425 3.66016,-1.04054 3.66016,-1.06503 3.66015,-1.08772 3.66016,-1.10861 3.66015,-1.12772 3.66016,-1.14503 3.66016,-1.16053 3.66015,-1.17425 3.66016,-1.18617 3.66016,-1.19629 3.66015,-1.20461 3.66016,-1.21115 3.66015,-1.21588 3.66016,-1.21881 3.66016,-1.21996 3.66015,-1.21931 3.66016,-1.21686 3.66016,-1.21261 3.66015,-1.20658 3.66016,-1.19873 3.66015,-1.1891 3.66016,-1.17768 3.66016,-1.16445 3.66015,-1.14943 3.66016,-1.13262 3.66016,-1.114 3.66015,-1.09359 3.66016,-1.07139 3.66015,-1.0474 3.66016,-1.02159 3.66016,-0.99401 3.66015,-0.96461 3.66016,-0.93344 3.66016,-0.90045 3.66015,-0.86568 3.66016,-0.82912 3.66015,-0.79074 3.66016,-0.75058 3.66016,-0.70862 3.66015,-0.66487 3.66016,-0.61932 3.66016,-0.57197 3.66015,-0.52284 3.66016,-0.47189 3.66015,-0.41916 3.66016,-0.36463 3.66016,-0.30831 3.66015,-0.25018 3.66016,-0.19027 3.66016,-0.12855 3.66015,-0.065 3.66016,2.6e-4 3.66015,0.0674 3.66016,0.13626 3.66016,0.20694 3.66015,0.27944 3.66016,0.35372 3.66016,0.4298 3.66015,0.50768 3.66016,0.58734 3.66015,0.66882 3.66016,0.75208 3.66016,0.83713 3.66015,0.924 3.66016,1.01264 3.66016,1.10309 3.66015,1.19533 3.66016,1.28937 3.66015,1.38521 3.66016,1.48284 3.66016,1.58226 3.66015,1.68348 3.66016,1.78651 3.66016,1.89131 3.66015,1.99793 3.66016,2.10633 3.66015,2.21654 3.66016,2.32853 3.66016,2.44232 3.66015,2.55791 3.66016,2.6753 3.66016,2.79448 3.66015,2.91545 3.66016,3.03823 3.66015,3.1628 3.66016,3.28916 3.66016,3.41732 3.66015,3.54728 3.66016,3.67903 3.66016,3.81257 3.66015,3.94792 3.66016,4.08506 3.66015,4.224 3.66016,4.36473 3.66016,4.50725 3.66015,4.65158 3.66016,4.79769 3.66016,4.94561 3.66015,5.09532 3.66016,5.24683 3.66015,5.40013 3.66016,5.55523 3.66016,5.71212 3.66015,5.87082 3.66016,6.03129 3.66016,6.19359 3.66015,6.35765 3.66016,6.52353 3.66015,6.69121 3.66016,6.86066 3.66016,7.03193 3.66015,7.20498 3.66016,7.37984 3.66016,7.55648 3.66015,7.73493 3.66016,7.91518 3.66015,8.0972 3.66016,8.28104 3.66016,8.46667 3.66015,8.65409 3.66016,8.84332 3.66016,9.03432 3.66015,9.22714 3.66016,9.42175"
     stroke-miterlimit="10"
     id="path23"
     inkscape:connector-curvature="0"
     style="fill:none;stroke:#000000;stroke-width:2.5;stroke-linecap:round;stroke-linejoin:round;stroke-miterlimit:10;stroke-opacity:0.69803922;paint-order:fill stroke markers" />
  <path
     d="M 753.64701,622.54449 V 149.61694"
     stroke-miterlimit="10"
     id="path25"
     inkscape:connector-curvature="0"
     style="fill:none;stroke:#000000;stroke-width:2.5;stroke-linejoin:round;stroke-miterlimit:10;stroke-dasharray:10.5, 8;stroke-opacity:0.69803922;paint-order:fill stroke markers" />
  <path
     d="M 457.55054,256.65018 295.65041,256.0804"
     stroke-miterlimit="10"
     id="path27"
     inkscape:connector-curvature="0"
     style="fill:none;stroke:#000000;stroke-width:2.5;stroke-linejoin:round;stroke-miterlimit:10;stroke-dasharray:10.5, 8;stroke-opacity:0.69803922;paint-order:fill stroke markers"
     sodipodi:nodetypes="cc" />
  <path
     d="M 457.55054,256.65018 V 622.54449"
     stroke-miterlimit="10"
     id="path29"
     inkscape:connector-curvature="0"
     style="fill:none;stroke:#000000;stroke-width:2.5;stroke-linejoin:round;stroke-miterlimit:10;stroke-dasharray:10.5, 8;stroke-opacity:0.69803922;paint-order:fill stroke markers" />
  <path
     d="m 462.55054,622.54449 c 0,2.76142 -2.23858,5 -5,5 -2.76142,0 -5,-2.23858 -5,-5 0,-2.76143 2.23858,-5 5,-5 2.76142,0 5,2.23857 5,5 z"
     id="path31"
     inkscape:connector-curvature="0"
     style="fill:#000000;fill-opacity:1;stroke:none;paint-order:stroke fill markers" />
  <path
     d="m 462.55054,622.54449 c 0,2.76142 -2.23858,5 -5,5 -2.76142,0 -5,-2.23858 -5,-5 0,-2.76143 2.23858,-5 5,-5 2.76142,0 5,2.23857 5,5 z"
     stroke-miterlimit="10"
     id="path33"
     inkscape:connector-curvature="0"
     style="fill:none;stroke:#000000;stroke-linecap:round;stroke-linejoin:round;stroke-miterlimit:10;stroke-opacity:1;paint-order:fill stroke markers" />
  <path
     d="m 758.64701,622.54449 c 0,2.76142 -2.23858,5 -5,5 -2.76143,0 -5,-2.23858 -5,-5 0,-2.76143 2.23857,-5 5,-5 2.76142,0 5,2.23857 5,5 z"
     id="path35"
     inkscape:connector-curvature="0"
     style="fill:#000000;fill-opacity:1;stroke:none;paint-order:stroke fill markers" />
  <path
     d="m 758.64701,622.54449 c 0,2.76142 -2.23858,5 -5,5 -2.76143,0 -5,-2.23858 -5,-5 0,-2.76143 2.23857,-5 5,-5 2.76142,0 5,2.23857 5,5 z"
     stroke-miterlimit="10"
     id="path37"
     inkscape:connector-curvature="0"
     style="fill:none;stroke:#000000;stroke-linecap:round;stroke-linejoin:round;stroke-miterlimit:10;stroke-opacity:1;paint-order:fill stroke markers" />
  <path
     d="m 461.55054,256.65018 c 0,2.20914 -1.79086,4 -4,4 -2.20914,0 -4,-1.79086 -4,-4 0,-2.20914 1.79086,-4 4,-4 2.20914,0 4,1.79086 4,4 z"
     id="path39"
     inkscape:connector-curvature="0"
     style="fill:#444444;fill-opacity:1;stroke:none;paint-order:stroke fill markers" />
  <path
     d="m 461.55054,256.65018 c 0,2.20914 -1.79086,4 -4,4 -2.20914,0 -4,-1.79086 -4,-4 0,-2.20914 1.79086,-4 4,-4 2.20914,0 4,1.79086 4,4 z"
     stroke-miterlimit="10"
     id="path41"
     inkscape:connector-curvature="0"
     style="fill:none;stroke:#000000;stroke-linecap:round;stroke-linejoin:round;stroke-miterlimit:10;stroke-opacity:1;paint-order:fill stroke markers" />
  <g
     transform="scale(19)"
     id="g59">
    <g
       transform="translate(36,34.431287)"
       id="g45">
      <path
         d="m 0.206,-0.4 -0.074,0.295 q -0.006,0.025 -0.006,0.048 0,0.046 0.031,0.046 0.066,0 0.116,-0.097 l 0.014,-0.031 q 0.006,-0.013 0.015,-0.014 0.012,0 0.012,0.01 0,0.013 -0.026,0.057 -0.058,0.097 -0.133,0.097 -0.058,0 -0.082,-0.048 -0.01,-0.02 -0.01,-0.044 0,-0.019 0.061,-0.259 L 0.139,-0.4 H 0.051 q -0.025,0 -0.027,-0.008 H 0.023 v -0.004 q 0,-0.017 0.016,-0.019 H 0.053 0.147 L 0.186,-0.59 q 0.009,-0.035 0.04,-0.036 0.026,0 0.029,0.027 0,0.006 -0.041,0.168 h 0.088 q 0.026,0 0.028,0.011 0,0.018 -0.016,0.02 H 0.313 0.3 Z"
         id="path43"
         inkscape:connector-curvature="0"
         style="fill:#000000;stroke:none;paint-order:stroke fill markers" />
    </g>
    <g
       transform="matrix(0.7,0,0,0.7,36.361113,34.581287)"
       id="g49">
      <path
         d="m 0.46,-0.32 q 0,0.146 -0.037,0.226 Q 0.364,0.018 0.249,0.022 0.158,0.022 0.103,-0.05 0.092,-0.063 0.084,-0.079 0.039,-0.162 0.039,-0.32 q 0,-0.147 0.037,-0.227 0.05,-0.112 0.162,-0.119 H 0.25 q 0.089,0 0.145,0.071 v 0.001 q 0.014,0.018 0.025,0.04 0.04,0.085 0.04,0.234 M 0.249,0 v 0 q 0.063,0 0.097,-0.061 0.014,-0.027 0.02,-0.064 0.011,-0.064 0.011,-0.207 0,-0.139 -0.01,-0.195 -0.018,-0.095 -0.092,-0.114 -0.013,-0.003 -0.026,-0.003 -0.07,0 -0.102,0.07 -0.011,0.024 -0.017,0.058 -0.008,0.054 -0.008,0.184 0,0.151 0.011,0.211 0.018,0.096 0.088,0.117 Q 0.235,0 0.249,0 Z"
         id="path47"
         inkscape:connector-curvature="0"
         style="fill:#000000;stroke:none;paint-order:stroke fill markers" />
    </g>
    <g
       transform="translate(36.933337,34.431287)"
       id="g53">
      <path
         d="m 0.409,-0.23 v 0.28 q 0,0.032 -0.02,0.033 -0.02,0 -0.02,-0.033 v -0.28 h -0.28 q -0.032,0 -0.033,-0.02 0,-0.02 0.033,-0.02 h 0.28 v -0.28 q 0,-0.032 0.02,-0.033 0.02,0 0.02,0.033 v 0.28 h 0.279 q 0.032,0 0.033,0.02 0,0.02 -0.033,0.02 z"
         id="path51"
         inkscape:connector-curvature="0"
         style="fill:#000000;stroke:none;paint-order:stroke fill markers" />
    </g>
    <g
       transform="translate(37.933341,34.431287)"
       id="g57">
      <path
         d="m 0.287,-0.683 -0.078,0.318 q 0.062,-0.077 0.148,-0.077 0.089,0 0.11,0.069 v 0.001 q 0.005,0.017 0.005,0.037 0,0.056 -0.061,0.22 -0.018,0.044 -0.018,0.071 0,0.033 0.024,0.033 0.062,0 0.098,-0.11 l 0.004,-0.014 q 0.005,-0.016 0.01,-0.017 v -0.001 h 0.005 q 0.012,0 0.012,0.01 0,0.017 -0.021,0.063 -0.043,0.091 -0.11,0.091 -0.051,0 -0.073,-0.043 -0.009,-0.018 -0.009,-0.039 0,-0.018 0.013,-0.055 0.062,-0.158 0.062,-0.224 0,-0.07 -0.054,-0.07 -0.048,0 -0.096,0.035 -0.037,0.029 -0.065,0.086 L 0.19,-0.293 Q 0.186,-0.269 0.179,-0.248 0.174,-0.225 0.162,-0.181 L 0.14,-0.091 0.121,-0.015 Q 0.114,0.006 0.09,0.01 0.087,0.011 0.084,0.011 0.06,0.011 0.056,-0.01 0.055,-0.014 0.055,-0.017 q 0,-0.008 0.004,-0.022 l 0.145,-0.576 0.003,-0.02 q 0,-0.011 -0.014,-0.014 v 0 q -0.012,-0.003 -0.036,-0.003 -0.022,0 -0.024,-0.012 0,-0.017 0.019,-0.02 l 0.122,-0.01 q 0.013,0 0.013,0.011 z"
         id="path55"
         inkscape:connector-curvature="0"
         style="fill:#000000;stroke:none;paint-order:stroke fill markers" />
    </g>
  </g>
  <g
     transform="scale(19)"
     id="g69">
    <g
       transform="translate(22.421053,34.404554)"
       id="g63">
      <path
         d="m 0.206,-0.4 -0.074,0.295 q -0.006,0.025 -0.006,0.048 0,0.046 0.031,0.046 0.066,0 0.116,-0.097 l 0.014,-0.031 q 0.006,-0.013 0.015,-0.014 0.012,0 0.012,0.01 0,0.013 -0.026,0.057 -0.058,0.097 -0.133,0.097 -0.058,0 -0.082,-0.048 -0.01,-0.02 -0.01,-0.044 0,-0.019 0.061,-0.259 L 0.139,-0.4 H 0.051 q -0.025,0 -0.027,-0.008 H 0.023 v -0.004 q 0,-0.017 0.016,-0.019 H 0.053 0.147 L 0.186,-0.59 q 0.009,-0.035 0.04,-0.036 0.026,0 0.029,0.027 0,0.006 -0.041,0.168 h 0.088 q 0.026,0 0.028,0.011 0,0.018 -0.016,0.02 H 0.313 0.3 Z"
         id="path61"
         inkscape:connector-curvature="0"
         style="fill:#000000;stroke:none;paint-order:stroke fill markers" />
    </g>
    <g
       transform="matrix(0.7,0,0,0.7,22.782166,34.554554)"
       id="g67">
      <path
         d="m 0.46,-0.32 q 0,0.146 -0.037,0.226 Q 0.364,0.018 0.249,0.022 0.158,0.022 0.103,-0.05 0.092,-0.063 0.084,-0.079 0.039,-0.162 0.039,-0.32 q 0,-0.147 0.037,-0.227 0.05,-0.112 0.162,-0.119 H 0.25 q 0.089,0 0.145,0.071 v 0.001 q 0.014,0.018 0.025,0.04 0.04,0.085 0.04,0.234 M 0.249,0 v 0 q 0.063,0 0.097,-0.061 0.014,-0.027 0.02,-0.064 0.011,-0.064 0.011,-0.207 0,-0.139 -0.01,-0.195 -0.018,-0.095 -0.092,-0.114 -0.013,-0.003 -0.026,-0.003 -0.07,0 -0.102,0.07 -0.011,0.024 -0.017,0.058 -0.008,0.054 -0.008,0.184 0,0.151 0.011,0.211 0.018,0.096 0.088,0.117 Q 0.235,0 0.249,0 Z"
         id="path65"
         inkscape:connector-curvature="0"
         style="fill:#000000;stroke:none;paint-order:stroke fill markers" />
    </g>
  </g>
  <g
     transform="scale(19)"
     id="g103">
    <g
       transform="translate(10.368421,14.697368)"
       id="g73">
      <path
         d="m 0.367,-0.4 v 0 l -0.06,0.317 Q 0.298,-0.021 0.271,0.059 0.261,0.088 0.251,0.108 0.216,0.182 0.164,0.2 0.151,0.205 0.138,0.205 0.088,0.205 0.064,0.171 0.053,0.156 0.053,0.136 q 0,-0.04 0.034,-0.055 0.01,-0.005 0.021,-0.005 0.029,0 0.036,0.025 0.001,0.005 0.001,0.01 0,0.034 -0.03,0.048 -0.011,0.005 -0.025,0.006 0.019,0.018 0.048,0.018 0.044,0 0.069,-0.098 0.005,-0.023 0.012,-0.06 L 0.225,-0.005 0.3,-0.4 H 0.234 q -0.025,0 -0.027,-0.008 H 0.206 v -0.004 q 0,-0.017 0.017,-0.019 v 0 h 0.013 0.069 q 0.024,-0.125 0.033,-0.157 0.03,-0.1 0.106,-0.115 0.011,-0.002 0.021,-0.002 0.052,0 0.076,0.034 v 0 q 0.011,0.015 0.011,0.035 0,0.04 -0.034,0.055 -0.01,0.005 -0.021,0.005 -0.029,0 -0.036,-0.025 -0.001,-0.005 -0.001,-0.01 0,-0.031 0.028,-0.046 0.011,-0.007 0.026,-0.008 -0.019,-0.018 -0.049,-0.018 -0.031,0 -0.047,0.034 -0.007,0.014 -0.024,0.104 l -0.021,0.114 h 0.083 q 0.025,0 0.027,0.011 0,0.018 -0.016,0.02 H 0.466 0.453 Z"
         id="path71"
         inkscape:connector-curvature="0"
         style="fill:#000000;stroke:none;paint-order:stroke fill markers" />
    </g>
    <g
       transform="translate(10.965647,14.697368)"
       id="g77">
      <path
         d="m 0.331,0.24 v 0 q 0,0.01 -0.01,0.01 Q 0.309,0.25 0.268,0.209 0.206,0.147 0.165,0.062 0.099,-0.074 0.099,-0.25 q 0,-0.169 0.063,-0.305 0.052,-0.111 0.132,-0.178 0.021,-0.017 0.027,-0.017 0.01,0 0.01,0.01 0,0.005 -0.013,0.017 -0.161,0.164 -0.161,0.473 0,0.308 0.157,0.468 0.017,0.017 0.017,0.022 z"
         id="path75"
         inkscape:connector-curvature="0"
         style="fill:#000000;stroke:none;paint-order:stroke fill markers" />
    </g>
    <g
       transform="translate(11.354537,14.697368)"
       id="g81">
      <path
         d="M 0.486,-0.381 0.39,0.001 Q 0.366,0.099 0.283,0.16 0.222,0.205 0.156,0.205 0.089,0.205 0.061,0.159 0.05,0.14 0.05,0.118 0.05,0.067 0.091,0.055 0.099,0.053 0.106,0.053 q 0.032,0 0.036,0.028 0.001,0.003 0.001,0.007 0,0.023 -0.02,0.041 -0.014,0.012 -0.043,0.012 0.018,0.042 0.076,0.042 0.062,0 0.11,-0.063 0.039,-0.052 0.062,-0.141 0.001,-0.004 0.003,-0.013 -0.045,0.045 -0.101,0.045 -0.08,0 -0.109,-0.059 -0.013,-0.026 -0.013,-0.06 0,-0.055 0.053,-0.197 0.002,-0.006 0.005,-0.013 0.017,-0.046 0.017,-0.07 0,-0.032 -0.025,-0.032 -0.055,0 -0.09,0.091 v 0.001 q -0.006,0.015 -0.011,0.032 -0.011,0.017 -0.016,0.018 -0.012,0 -0.012,-0.01 0,-0.018 0.021,-0.063 0.044,-0.091 0.111,-0.091 0.053,0 0.074,0.045 0.008,0.017 0.008,0.037 0,0.021 -0.02,0.072 -0.051,0.132 -0.051,0.196 0,0.081 0.062,0.081 0.058,0 0.101,-0.062 0.01,-0.015 0.012,-0.023 l 0.045,-0.18 q 0.007,-0.033 0.02,-0.08 0.01,-0.043 0.014,-0.054 0.013,-0.021 0.035,-0.021 0.025,0.005 0.029,0.027 0,0.009 -0.004,0.023 z"
         id="path79"
         inkscape:connector-curvature="0"
         style="fill:#000000;stroke:none;paint-order:stroke fill markers" />
    </g>
    <g
       transform="matrix(0.7,0,0,0.7,11.844819,14.847368)"
       id="g85">
      <path
         d="m 0.46,-0.32 q 0,0.146 -0.037,0.226 Q 0.364,0.018 0.249,0.022 0.158,0.022 0.103,-0.05 0.092,-0.063 0.084,-0.079 0.039,-0.162 0.039,-0.32 q 0,-0.147 0.037,-0.227 0.05,-0.112 0.162,-0.119 H 0.25 q 0.089,0 0.145,0.071 v 0.001 q 0.014,0.018 0.025,0.04 0.04,0.085 0.04,0.234 M 0.249,0 v 0 q 0.063,0 0.097,-0.061 0.014,-0.027 0.02,-0.064 0.011,-0.064 0.011,-0.207 0,-0.139 -0.01,-0.195 -0.018,-0.095 -0.092,-0.114 -0.013,-0.003 -0.026,-0.003 -0.07,0 -0.102,0.07 -0.011,0.024 -0.017,0.058 -0.008,0.054 -0.008,0.184 0,0.151 0.011,0.211 0.018,0.096 0.088,0.117 Q 0.235,0 0.249,0 Z"
         id="path83"
         inkscape:connector-curvature="0"
         style="fill:#000000;stroke:none;paint-order:stroke fill markers" />
    </g>
    <g
       transform="translate(12.19482,14.697368)"
       id="g89">
      <path
         d="m 0.203,-0.001 v 0 q 0,0.097 -0.063,0.17 -0.017,0.02 -0.028,0.024 -0.01,0 -0.01,-0.011 0,-0.005 0.011,-0.016 0.06,-0.06 0.067,-0.147 0.001,-0.01 0.001,-0.02 0,-0.015 -0.002,-0.015 -0.001,0 -0.005,0.003 Q 0.16,0 0.139,0 0.102,0 0.09,-0.034 0.086,-0.043 0.086,-0.053 q 0,-0.036 0.031,-0.049 0.01,-0.004 0.022,-0.004 0.044,0 0.059,0.058 0.005,0.021 0.005,0.047 z"
         id="path87"
         inkscape:connector-curvature="0"
         style="fill:#000000;stroke:none;paint-order:stroke fill markers" />
    </g>
    <g
       transform="translate(12.639267,14.697368)"
       id="g93">
      <path
         d="m 0.206,-0.4 -0.074,0.295 q -0.006,0.025 -0.006,0.048 0,0.046 0.031,0.046 0.066,0 0.116,-0.097 l 0.014,-0.031 q 0.006,-0.013 0.015,-0.014 0.012,0 0.012,0.01 0,0.013 -0.026,0.057 -0.058,0.097 -0.133,0.097 -0.058,0 -0.082,-0.048 -0.01,-0.02 -0.01,-0.044 0,-0.019 0.061,-0.259 L 0.139,-0.4 H 0.051 q -0.025,0 -0.027,-0.008 H 0.023 v -0.004 q 0,-0.017 0.016,-0.019 H 0.053 0.147 L 0.186,-0.59 q 0.009,-0.035 0.04,-0.036 0.026,0 0.029,0.027 0,0.006 -0.041,0.168 h 0.088 q 0.026,0 0.028,0.011 0,0.018 -0.016,0.02 H 0.313 0.3 Z"
         id="path91"
         inkscape:connector-curvature="0"
         style="fill:#000000;stroke:none;paint-order:stroke fill markers" />
    </g>
    <g
       transform="matrix(0.7,0,0,0.7,13.00038,14.847368)"
       id="g97">
      <path
         d="m 0.46,-0.32 q 0,0.146 -0.037,0.226 Q 0.364,0.018 0.249,0.022 0.158,0.022 0.103,-0.05 0.092,-0.063 0.084,-0.079 0.039,-0.162 0.039,-0.32 q 0,-0.147 0.037,-0.227 0.05,-0.112 0.162,-0.119 H 0.25 q 0.089,0 0.145,0.071 v 0.001 q 0.014,0.018 0.025,0.04 0.04,0.085 0.04,0.234 M 0.249,0 v 0 q 0.063,0 0.097,-0.061 0.014,-0.027 0.02,-0.064 0.011,-0.064 0.011,-0.207 0,-0.139 -0.01,-0.195 -0.018,-0.095 -0.092,-0.114 -0.013,-0.003 -0.026,-0.003 -0.07,0 -0.102,0.07 -0.011,0.024 -0.017,0.058 -0.008,0.054 -0.008,0.184 0,0.151 0.011,0.211 0.018,0.096 0.088,0.117 Q 0.235,0 0.249,0 Z"
         id="path95"
         inkscape:connector-curvature="0"
         style="fill:#000000;stroke:none;paint-order:stroke fill markers" />
    </g>
    <g
       transform="translate(13.350381,14.697368)"
       id="g101">
      <path
         d="m 0.289,-0.25 v 0 q 0,0.169 -0.063,0.305 Q 0.174,0.166 0.094,0.233 0.073,0.25 0.067,0.25 q -0.01,0 -0.01,-0.01 0,-0.005 0.013,-0.017 0.161,-0.164 0.161,-0.473 0,-0.305 -0.15,-0.462 L 0.076,-0.717 Q 0.057,-0.735 0.057,-0.74 q 0,-0.01 0.01,-0.01 0.012,0 0.053,0.041 0.062,0.062 0.103,0.147 0.066,0.136 0.066,0.312 z"
         id="path99"
         inkscape:connector-curvature="0"
         style="fill:#000000;stroke:none;paint-order:stroke fill markers" />
    </g>
  </g>
  <g
     transform="scale(19)"
     id="g109">
    <g
       transform="translate(13.263158,3.5891818)"
       id="g107">
      <path
         d="m 0.367,-0.4 v 0 l -0.06,0.317 Q 0.298,-0.021 0.271,0.059 0.261,0.088 0.251,0.108 0.216,0.182 0.164,0.2 0.151,0.205 0.138,0.205 0.088,0.205 0.064,0.171 0.053,0.156 0.053,0.136 q 0,-0.04 0.034,-0.055 0.01,-0.005 0.021,-0.005 0.029,0 0.036,0.025 0.001,0.005 0.001,0.01 0,0.034 -0.03,0.048 -0.011,0.005 -0.025,0.006 0.019,0.018 0.048,0.018 0.044,0 0.069,-0.098 0.005,-0.023 0.012,-0.06 L 0.225,-0.005 0.3,-0.4 H 0.234 q -0.025,0 -0.027,-0.008 H 0.206 v -0.004 q 0,-0.017 0.017,-0.019 v 0 h 0.013 0.069 q 0.024,-0.125 0.033,-0.157 0.03,-0.1 0.106,-0.115 0.011,-0.002 0.021,-0.002 0.052,0 0.076,0.034 v 0 q 0.011,0.015 0.011,0.035 0,0.04 -0.034,0.055 -0.01,0.005 -0.021,0.005 -0.029,0 -0.036,-0.025 -0.001,-0.005 -0.001,-0.01 0,-0.031 0.028,-0.046 0.011,-0.007 0.026,-0.008 -0.019,-0.018 -0.049,-0.018 -0.031,0 -0.047,0.034 -0.007,0.014 -0.024,0.104 l -0.021,0.114 h 0.083 q 0.025,0 0.027,0.011 0,0.018 -0.016,0.02 H 0.466 0.453 Z"
         id="path105"
         inkscape:connector-curvature="0"
         style="fill:#000000;stroke:none;paint-order:stroke fill markers" />
    </g>
  </g>
  <g
     transform="scale(19)"
     id="g115">
    <g
       transform="translate(42.368421,34.562448)"
       id="g113">
      <path
         d="m 0.206,-0.4 -0.074,0.295 q -0.006,0.025 -0.006,0.048 0,0.046 0.031,0.046 0.066,0 0.116,-0.097 l 0.014,-0.031 q 0.006,-0.013 0.015,-0.014 0.012,0 0.012,0.01 0,0.013 -0.026,0.057 -0.058,0.097 -0.133,0.097 -0.058,0 -0.082,-0.048 -0.01,-0.02 -0.01,-0.044 0,-0.019 0.061,-0.259 L 0.139,-0.4 H 0.051 q -0.025,0 -0.027,-0.008 H 0.023 v -0.004 q 0,-0.017 0.016,-0.019 H 0.053 0.147 L 0.186,-0.59 q 0.009,-0.035 0.04,-0.036 0.026,0 0.029,0.027 0,0.006 -0.041,0.168 h 0.088 q 0.026,0 0.028,0.011 0,0.018 -0.016,0.02 H 0.313 0.3 Z"
         id="path111"
         inkscape:connector-curvature="0"
         style="fill:#000000;stroke:none;paint-order:stroke fill markers" />
    </g>
  </g>
  <path
     d="m 754.16161,221.14278 -296.61107,35.5074"
     stroke-miterlimit="10"
     id="path27-3"
     inkscape:connector-curvature="0"
     style="fill:none;stroke:#000000;stroke-width:2.5;stroke-linejoin:round;stroke-miterlimit:10;stroke-dasharray:10.5, 8;stroke-opacity:0.69803922;paint-order:fill stroke markers"
     sodipodi:nodetypes="cc" />
</svg>
